HIERARCHY
ROOT Pelvis
{
	OFFSET 0.000000 0.000000 0.000000
	CHANNELS 6 Xposition Yposition Zposition Xrotation Yrotation Zrotation
	JOINT LeftUpLeg_virtual
	{
		OFFSET 0.000000 0.000000 0.000000
		CHANNELS 3 Xrotation Yrotation Zrotation
		JOINT LeftUpLeg
		{
			OFFSET 18.735201 -5.666702 -4.541200
			CHANNELS 3 Xrotation Yrotation Zrotation
			JOINT LeftLeg
			{
				OFFSET -0.021200 -31.938179 0.493100
				CHANNELS 3 Xrotation Yrotation Zrotation
				JOINT LeftFoot
				{
					OFFSET 0.021200 -31.938179 -4.336299
					CHANNELS 3 Xrotation Yrotation Zrotation
					JOINT LeftToeBase
					{
						OFFSET 0.943001 -26.722000 15.023500
						CHANNELS 3 Xrotation Yrotation Zrotation
						End Site
						{
							OFFSET 0 0 0
						}
					}
				}
			}
		}
	}
	JOINT RightUpLeg_virtual
	{
		OFFSET 0.000000 0.000000 0.000000
		CHANNELS 3 Xrotation Yrotation Zrotation
		JOINT RightUpLeg
		{
			OFFSET -18.735201 -5.666702 -4.541200
			CHANNELS 3 Xrotation Yrotation Zrotation
			JOINT RightLeg
			{
				OFFSET 0.018946 -31.938133 0.493100
				CHANNELS 3 Xrotation Yrotation Zrotation
				JOINT RightFoot
				{
					OFFSET -0.018946 -31.938126 -4.336299
					CHANNELS 3 Xrotation Yrotation Zrotation
					JOINT RightToeBase
					{
						OFFSET -0.943001 -26.722004 15.023500
						CHANNELS 3 Xrotation Yrotation Zrotation
						End Site
						{
							OFFSET 0 0 0
						}
					}
				}
			}
		}
	}
	JOINT Hips_virtual
	{
		OFFSET 0.000000 0.000000 0.000000
		CHANNELS 3 Xrotation Yrotation Zrotation
		JOINT Hips
		{
			OFFSET -0.000000 -0.000000 -0.000000
			CHANNELS 3 Xrotation Yrotation Zrotation
			JOINT Spine
			{
				OFFSET 0.000000 10.199997 -0.299500
				CHANNELS 3 Xrotation Yrotation Zrotation
				JOINT Spine1
				{
					OFFSET 0.000000 11.900002 -1.516600
					CHANNELS 3 Xrotation Yrotation Zrotation
					JOINT Spine2
					{
						OFFSET 0.000000 13.600006 -2.842500
						CHANNELS 3 Xrotation Yrotation Zrotation
						JOINT Neck_virtual
						{
							OFFSET 0.000000 0.000000 0.000000
							CHANNELS 3 Xrotation Yrotation Zrotation
							JOINT Neck
							{
								OFFSET 0.000000 9.624100 -2.890100
								CHANNELS 3 Xrotation Yrotation Zrotation
								JOINT Head
								{
									OFFSET 0.000000 14.068802 -1.351900
									CHANNELS 3 Xrotation Yrotation Zrotation
									End Site
									{
										OFFSET 0 0 0
									}
								}
							}
						}
						JOINT LeftShoulder_virtual
						{
							OFFSET 0.000000 0.000000 0.000000
							CHANNELS 3 Xrotation Yrotation Zrotation
							JOINT LeftShoulder
							{
								OFFSET 15.263000 10.923401 -0.547700
								CHANNELS 3 Xrotation Yrotation Zrotation
								JOINT LeftArm
								{
									OFFSET 25.438599 -2.830597 -13.032500
									CHANNELS 3 Xrotation Yrotation Zrotation
									JOINT LeftForeArm
									{
										OFFSET 29.960503 0.000000 0.000000
										CHANNELS 3 Xrotation Yrotation Zrotation
										JOINT LeftHand
										{
											OFFSET 27.849251 0.000000 0.000000
											CHANNELS 3 Xrotation Yrotation Zrotation
											End Site
											{
												OFFSET 0 0 0
											}
										}
									}
								}
							}
						}
						JOINT RightShoulder_virtual
						{
							OFFSET 0.000000 0.000000 0.000000
							CHANNELS 3 Xrotation Yrotation Zrotation
							JOINT RightShoulder
							{
								OFFSET -15.263000 10.923401 -0.547700
								CHANNELS 3 Xrotation Yrotation Zrotation
								JOINT RightArm
								{
									OFFSET -25.438599 -2.830597 -13.032500
									CHANNELS 3 Xrotation Yrotation Zrotation
									JOINT RightForeArm
									{
										OFFSET -29.960503 0.000000 0.000000
										CHANNELS 3 Xrotation Yrotation Zrotation
										JOINT RightHand
										{
											OFFSET -27.849251 0.000000 0.000000
											CHANNELS 3 Xrotation Yrotation Zrotation
											End Site
											{
												OFFSET 0 0 0
											}
										}
									}
								}
							}
						}
					}
				}
			}
		}
	}
}
MOTION
Frames: 5
Frame Time: 0.03333333
1.006150 87.679909 5.229422 0.000000 0.000000 0.000000 5.323808 -6.823853 -1.204704 -45.496150 3.685614 23.143461 64.127198 6.890516 -1.787202 14.073005 6.616739 -13.901400 0.000000 0.000000 0.000000 5.323808 -6.823853 -1.204704 -34.217158 -6.399217 4.570836 49.462550 -1.723348 -1.148859 -22.636685 -5.421744 -3.771867 0.000000 0.000000 0.000000 5.323808 -6.823853 -1.204704 0.000000 0.000000 0.000000 9.161155 3.404428 5.116645 6.474934 1.246103 1.050139 0.000000 0.000000 0.000000 6.471420 1.202599 1.091237 0.852925 -0.239619 -0.556569 0.000000 0.000000 0.000000 6.471420 1.202599 1.091237 1.724437 -9.915035 -14.934998 -25.063142 2.043297 -69.542172 -0.000009 -31.031284 -0.000025 0.000000 0.000000 0.000000 6.471420 1.202599 1.091237 4.830913 17.858059 5.566074 -15.198216 0.576454 66.754984 0.000002 21.881886 0.000010 0.000000 0.000000 0.000000 
0.943021 87.775826 5.286980 0.000000 0.000000 0.000000 5.344433 -6.832405 -0.968562 -45.895664 4.964692 23.625618 63.544788 7.437921 -1.815875 14.035375 5.248701 -13.349462 0.000000 0.000000 0.000000 5.344433 -6.832405 -0.968562 -34.234773 -6.328386 4.322265 49.353328 -2.036484 -1.142379 -22.488603 -5.037995 -3.630661 0.000000 0.000000 0.000000 5.344433 -6.832405 -0.968562 0.000000 0.000000 0.000000 9.153795 3.411897 5.108809 6.470718 1.252375 1.050136 0.000000 0.000000 0.000000 6.467357 1.205347 1.091239 0.852959 -0.244711 -0.552395 0.000000 0.000000 0.000000 6.467357 1.205347 1.091239 1.719458 -9.903874 -14.934634 -24.909451 1.975395 -69.518478 -0.000001 -31.046232 -0.000002 0.000000 0.000000 0.000000 6.467357 1.205347 1.091239 4.818716 17.839443 5.583534 -15.265575 -0.058705 66.673820 -0.000000 21.871309 0.000006 0.000000 0.000000 0.000000 
0.824969 87.906418 5.440104 0.000000 0.000000 0.000000 5.371096 -6.815419 -0.654637 -46.264915 5.513108 22.917231 62.840418 7.947239 -1.834169 13.724845 3.858103 -12.641408 0.000000 0.000000 0.000000 5.371096 -6.815419 -0.654637 -34.054671 -6.220075 4.048771 49.233650 -2.391838 -1.133745 -22.600008 -4.622566 -3.502223 0.000000 0.000000 0.000000 5.371096 -6.815419 -0.654637 0.000000 -0.000001 0.000000 9.131545 3.434980 5.095117 6.458227 1.270575 1.050138 0.000000 0.000000 0.000000 6.454851 1.219981 1.086655 0.853093 -0.257100 -0.549878 0.000000 0.000000 0.000000 6.454851 1.219981 1.086655 1.707811 -9.871292 -14.933497 -24.720367 1.875867 -69.543388 -0.000018 -31.071808 -0.000043 0.000000 0.000000 0.000000 6.454851 1.219981 1.086655 4.783116 17.784933 5.634551 -15.255327 -0.757015 66.514486 0.000001 21.916134 -0.000001 0.000000 0.000000 0.000000 
0.646356 88.095680 5.659098 0.000000 0.000000 0.000000 5.402315 -6.773040 -0.264360 -46.568404 6.399018 21.730513 61.841141 8.084856 -1.850041 12.879133 2.526882 -11.842119 0.000000 0.000000 0.000000 5.402315 -6.773040 -0.264360 -33.736077 -6.083418 3.755869 48.976773 -2.783902 -1.124172 -22.730379 -4.184818 -3.397161 0.000000 0.000000 0.000000 5.402315 -6.773040 -0.264360 0.000000 0.000000 0.000000 9.095632 3.466557 5.059583 6.437238 1.301645 1.047208 0.000000 0.000000 0.000000 6.434238 1.243749 1.079201 0.853192 -0.275819 -0.548941 0.000000 0.000000 0.000000 6.434238 1.243749 1.079201 1.689956 -9.818014 -14.926637 -24.496736 1.749455 -69.601472 0.000002 -31.094805 -0.000006 0.000000 0.000000 0.000000 6.434238 1.243749 1.079201 4.725668 17.696578 5.717013 -15.174698 -1.505987 66.289923 -0.000002 21.983649 -0.000012 0.000000 0.000000 0.000000 
0.454718 88.329254 5.939648 0.000000 0.000000 0.000000 5.436483 -6.708140 0.187674 -46.649338 7.371953 20.387358 60.447857 8.163523 -1.863579 11.595951 1.327794 -10.993493 0.000000 0.000000 0.000000 5.436483 -6.708140 0.187674 -33.313011 -5.909983 3.418166 48.624820 -3.198266 -1.113270 -22.882034 -3.741095 -3.281883 0.000000 0.000000 0.000000 5.436483 -6.708140 0.187674 0.000000 0.000000 0.000000 9.046703 3.504327 5.003876 6.408332 1.343090 1.038725 0.000000 0.000000 0.000000 6.405869 1.274518 1.063852 0.853406 -0.299986 -0.549389 0.000000 0.000000 0.000000 6.405869 1.274518 1.063852 1.665944 -9.745071 -14.916927 -24.239262 1.601048 -69.677150 0.000003 -31.120869 0.000022 0.000000 0.000000 0.000000 6.405869 1.274518 1.063852 4.647963 17.576327 5.828754 -15.030451 -2.293400 66.012966 -0.000004 22.078580 0.000015 0.000000 0.000000 0.000000 
